<svg xmlns="http://www.w3.org/2000/svg" viewBox="0 0 11 18" width="11" height="18">
	<style>
		tspan { white-space:pre }
		.shp0 { opacity: 0.502;fill: #474747 } 
	</style>
	<path id="Arrow L" class="shp0" d="M9.71,1.29c-0.39,-0.39 -1.02,-0.39 -1.4,0l-7.02,7.02c-0.39,0.39 -0.39,1.02 0,1.4c0.39,0.39 1.02,0.39 1.4,0l7.02,-7.02c0.39,-0.39 0.39,-1.02 0,-1.4zM9.71,15.31l-7.02,-7.02c-0.39,-0.39 -1.02,-0.39 -1.4,0c-0.39,0.39 -0.39,1.02 0,1.4l7.02,7.02c0.39,0.39 1.02,0.39 1.4,0c0.39,-0.39 0.39,-1.02 0,-1.4z" />
</svg>