<svg xmlns="http://www.w3.org/2000/svg" viewBox="0 0 21 20" width="21" height="20">
	<style>
		tspan { white-space:pre }
		.shp0 { fill: #2b414d } 
	</style>
	<path id="icon" class="shp0" d="M20,10.18c0,-5.62 -4.48,-10.18 -10,-10.18c-5.52,0 -10,4.56 -10,10.18c0,4.69 3.12,8.63 7.36,9.81c0.01,-0.96 0.03,-2.19 0.03,-2.34c-0.02,-0.01 -2.35,0.68 -3.35,-0.99c-0.16,-0.27 -0.42,-1.23 -1.12,-1.76c-0.02,-0.02 -0.54,-0.28 -0.59,-0.54c-0.01,-0.04 0.03,-0.11 0.08,-0.13c0.05,-0.02 0.9,-0.36 1.85,0.83c0.29,0.4 0.93,1.93 3.18,0.98c0.06,-0.24 0.18,-0.78 0.9,-0.93c-3.35,-0.4 -5.44,-2.02 -5.96,-5.04c-0.32,-2.06 0.87,-3.04 1.73,-3.83c-0.13,-0.17 -0.56,-1.59 0.11,-3.09c0.72,-0.14 2.04,0.37 3.2,1.2c1.64,-0.59 4.34,-0.44 5.44,0c0.52,-0.43 2.39,-1.44 3.19,-1.2c0.07,0.6 0.16,1.95 0.11,3.09c1.04,1.07 1.63,2.39 1.53,3.9c-0.12,2.64 -1.81,4.64 -5.37,4.95c0.9,0.61 0.94,1.57 0.97,1.95c0,0.49 0.08,1.71 0.15,2.69c3.82,-1.43 6.55,-5.16 6.55,-9.55z" />
</svg>