<svg xmlns="http://www.w3.org/2000/svg" viewBox="0 0 21 15" width="21" height="15">
	<style>
		tspan { white-space:pre }
		.shp0 { fill: #ffffff } 
	</style>
	<path id="bird" class="shp0" d="M20,1.78c-0.7,0.3 -1.45,0.5 -2.24,0.6c0.81,-0.47 1.42,-1.21 1.71,-2.09c-0.75,0.43 -1.59,0.75 -2.48,0.92c-0.71,-0.74 -1.72,-1.19 -2.85,-1.19c-2.15,0 -3.9,1.69 -3.9,3.78c0,0.3 0.03,0.59 0.1,0.86c-3.24,-0.16 -6.11,-1.66 -8.04,-3.95c-0.34,0.56 -0.53,1.21 -0.53,1.9c0,1.31 0.69,2.47 1.73,3.15c-0.64,-0.02 -1.24,-0.19 -1.77,-0.47c0,0.02 0,0.03 0,0.05c0,1.83 1.34,3.36 3.13,3.71c-0.33,0.09 -0.67,0.13 -1.03,0.13c-0.25,0 -0.5,-0.02 -0.73,-0.07c0.5,1.5 1.94,2.6 3.64,2.63c-1.33,1.02 -3.02,1.62 -4.84,1.62c-0.31,0 -0.62,-0.02 -0.93,-0.05c1.73,1.07 3.78,1.7 5.98,1.7c7.17,0 11.09,-5.77 11.09,-10.77c0,-0.16 0,-0.33 -0.01,-0.49c0.76,-0.53 1.42,-1.2 1.95,-1.96z" />
</svg>