<svg xmlns="http://www.w3.org/2000/svg" viewBox="0 0 27 22" width="27" height="22">
	<style>
		tspan { white-space:pre }
		.shp0 { fill: #333333 } 
	</style>
	<path id="sandwich" class="shp0" d="M0,20.5c0,0.83 0.67,1.5 1.5,1.5h23c0.83,0 1.5,-0.67 1.5,-1.5c0,-0.83 -0.67,-1.5 -1.5,-1.5h-23c-0.83,0 -1.5,0.67 -1.5,1.5zM0,11.5c0,0.83 0.67,1.5 1.5,1.5h23c0.83,0 1.5,-0.67 1.5,-1.5c0,-0.83 -0.67,-1.5 -1.5,-1.5h-23c-0.83,0 -1.5,0.67 -1.5,1.5zM6,2.5c0,0.83 0.67,1.5 1.5,1.5h17c0.83,0 1.5,-0.67 1.5,-1.5c0,-0.83 -0.67,-1.5 -1.5,-1.5h-17c-0.83,0 -1.5,0.67 -1.5,1.5z" />
</svg>